/* XPM */
static char *RFM_icon_file[] = {
/* columns rows colors chars-per-pixel */
"48 48 114 2 ",
"   c gray27",
".  c gray29",
"X  c #4C4C4C",
"o  c #4E4E4E",
"O  c gray31",
"+  c #505050",
"@  c gray32",
"#  c #535353",
"$  c gray33",
"%  c #555555",
"&  c #565656",
"*  c gray34",
"=  c #585858",
"-  c gray35",
";  c #5A5A5A",
":  c #5B5B5B",
">  c gray36",
",  c #5D5D5D",
"<  c #5F5F5F",
"1  c #606060",
"2  c #626262",
"3  c #656565",
"4  c #676767",
"5  c #686868",
"6  c #6A6A6A",
"7  c gray42",
"8  c #6D6D6D",
"9  c #6F6F6F",
"0  c #717171",
"q  c #727272",
"w  c gray45",
"e  c gray46",
"r  c #777777",
"t  c gray47",
"y  c gray48",
"u  c #7B7B7B",
"i  c #7C7C7C",
"p  c #7E7E7E",
"a  c gray50",
"s  c #808080",
"d  c #818181",
"f  c gray51",
"g  c #848484",
"h  c gray52",
"j  c #888888",
"k  c #898989",
"l  c gray54",
"z  c #8B8B8B",
"x  c gray55",
"c  c #8E8E8E",
"v  c #909090",
"b  c gray57",
"n  c #929292",
"m  c #939393",
"M  c #959595",
"N  c gray59",
"B  c #979797",
"V  c #989898",
"C  c gray60",
"Z  c #9A9A9A",
"A  c gray61",
"S  c #9D9D9D",
"D  c #A0A0A0",
"F  c #A2A2A2",
"G  c gray64",
"H  c #A4A4A4",
"J  c #BBBBBB",
"K  c #BCBCBC",
"L  c gray74",
"P  c gray",
"I  c gray75",
"U  c #C0C0C0",
"Y  c #C1C1C1",
"T  c gray76",
"R  c #C3C3C3",
"E  c gray77",
"W  c #C5C5C5",
"Q  c #C8C8C8",
"!  c LightGray",
"~  c #D8D8D8",
"^  c #DADADA",
"/  c #DCDCDC",
"(  c #DDDDDD",
")  c #DEDEDE",
"_  c #DFDFDF",
"`  c gray88",
"'  c #E1E1E1",
"]  c #E2E2E2",
"[  c #E3E3E3",
"{  c #E4E4E4",
"}  c #E5E5E5",
"|  c #E6E6E6",
" . c #E7E7E7",
".. c #E8E8E8",
"X. c #E9E9E9",
"o. c #EAEAEA",
"O. c #EBEBEB",
"+. c #ECECEC",
"@. c #EDEDED",
"#. c #EEEEEE",
"$. c #EFEFEF",
"%. c #F0F0F0",
"&. c #F1F1F1",
"*. c #F2F2F2",
"=. c #F3F3F3",
"-. c #F4F4F4",
";. c #F5F5F5",
":. c #F6F6F6",
">. c #F7F7F7",
",. c #F8F8F8",
"<. c #F9F9F9",
"1. c gray98",
"2. c #FBFBFB",
"3. c None",
/* pixels */
"3.3.3.3.3.3.3.3.3.3.3.3.3.3.3.3.3.3.3.3.3.3.3.3.3.3.3.3.3.3.3.3.3.3.3.3.3.3.3.3.3.3.3.3.3.3.3.3.",
"3.3.3.3.3.3.3.3.3.3.3.3.3.3.3.3.3.3.3.3.3.3.3.3.3.3.3.3.3.3.3.3.3.3.3.3.3.3.3.3.3.3.3.3.3.3.3.3.",
"3.3.3.3.3.3.3.3.3.3.3.3.3.3.3.3.3.3.3.3.3.3.3.3.3.3.3.3.3.3.3.3.3.3.3.3.3.3.3.3.3.3.3.3.3.3.3.3.",
"3.3.3.3.3.3.3.S S D H H H D D S S Z B B m m x x z h h f f f i i y r 0 9 9 9 7 3 7 3.3.3.3.3.3.3.",
"3.3.3.3.3.3.Z ..,.2.2.2.2.,.,.,.,.,.,.,.2.,.,.,.,.,.,.>.>.>.>.,.>.>.>.>.>.>.>.>...1 3.3.3.3.3.3.",
"3.3.3.3.3.3.Z >.| ) ] ) ..] | ] ] | ] ] | | | | | | | | | | | | | | | | | | ] | >., 3.3.3.3.3.3.",
"3.3.3.3.3.3.B >.] ) ) ^ | ] ) ] ] ] ] ] ] ] ] ] ] | | ] ] | ] | ] | | ] ] ] ] | >., 3.3.3.3.3.3.",
"3.3.3.3.3.3.B >.| ) ) ) | ) ] ] ] ] ] ] ] | | ] | ] ] | | ] | | | ] | | | | | | >., 3.3.3.3.3.3.",
"3.3.3.3.3.3.B >.] ) ) ) | ] ] ] ] ] ] ] ] | ] | | | | | | | | | | | | | | | | | >., 3.3.3.3.3.3.",
"3.3.3.3.3.3.B >.] ] ) ) | ] ] ] J J L L L J L L J J L L L L L L L L L L | | | ..>., 3.3.3.3.3.3.",
"3.3.3.3.3.3.m >.| ) ] ) ..] ] ] ] | ] | | | | | | | | | ....| | ..| ....| ..| | >.; 3.3.3.3.3.3.",
"3.3.3.3.3.3.m ,.| ] ) ) ..] ] | J L L J L J L L L L L L L L L L U L L L ..| ....>., 3.3.3.3.3.3.",
"3.3.3.3.3.3.x ,.| ] ] ) ..| | ] | | | | | | ..................................+.>.; 3.3.3.3.3.3.",
"3.3.3.3.3.3.x >.| ] ] ) ..] ] | J L L L L L L L L U L U L L L U L U U L ........>.; 3.3.3.3.3.3.",
"3.3.3.3.3.3.x >.| ] ] ) ..| | | | | | | ................+.....+.......+.+.......>.; 3.3.3.3.3.3.",
"3.3.3.3.3.3.z >.| ] ] ] +.| ] | L L L L U L L U L U L U U L U U U U U U ..+.+...,.; 3.3.3.3.3.3.",
"3.3.3.3.3.3.z >...] ] ) ..| | | | ..............+.....+.+.+.+.....+.+.+.+...+.+.,.; 3.3.3.3.3.3.",
"3.3.3.3.3.3.h >...! ) ] ..| | ..L L L L L U U U U U U L U L U U U U U L +.+.+.+.,.$ 3.3.3.3.3.3.",
"3.3.3.3.3.3.h >...Q ] ] +.| ..............+.+...+.+.+.+.+.+.+.+.+.+.+.+.+.+.+.+.,.; 3.3.3.3.3.3.",
"3.3.3.3.3.3.f >...] +.] +.......U L U U U L U U U L U U U U U U U U U U +.+.+.+.,.$ 3.3.3.3.3.3.",
"3.3.3.3.3.3.f >...| | ] +.............+.+...+.+.+.+.+.+.+.+.%.+.%.%.+.%.+.+.+.+.,.$ 3.3.3.3.3.3.",
"3.3.3.3.3.3.f >...| | ] +.......L U U L U U U U U U U U U U U U U U U U %.%.%.+.,.$ 3.3.3.3.3.3.",
"3.3.3.3.3.3.i >...| | ] +...+...+...+.+.+.+.+.+.%.+.%.%.%.%.%.%.%.%.%.%.%.%.%.%.>.# 3.3.3.3.3.3.",
"3.3.3.3.3.3.i >...| | ] +.......U L U U U U U U U U U U U E U U U U U U %.+.+.%.>.# 3.3.3.3.3.3.",
"3.3.3.3.3.3.y >.......] +.....+...+.+.+.+.+.%.+.%.%.%.%.%.%.>.%.%.%.%.%.%.%.%.%.>.# 3.3.3.3.3.3.",
"3.3.3.3.3.3.r >...| | | +.....+.U U U U U U U U U %.%.%.%.%.%.%.%.%.%.%.%.>.%.%.>.o 3.3.3.3.3.3.",
"3.3.3.3.3.3.r >.....| ] +...+...+.+.+.+.%.+.%.%.%.%.%.%.%.%.%.>.%.>.>.%.%.%.%.%.>.o 3.3.3.3.3.3.",
"3.3.3.3.3.3.0 >...| ..| %...+.+.+.+.+.%.+.%.%.%.%.%.>.%.>.%.>.%.%.>.%.%.%.>.%.>.>.o 3.3.3.3.3.3.",
"3.3.3.3.3.3.0 >.......| +...+.+.+.+.+.%.%.%.%.%.%.%.>.%.%.%.>.>.>.%.>.>.%.>.%.%.>.o 3.3.3.3.3.3.",
"3.3.3.3.3.3.9 >...U ^ | %.+...+.U U U U E U U U E U U E E E U U E U U U >.%.>.>.>.o 3.3.3.3.3.3.",
"3.3.3.3.3.3.9 %.+.^ +.| +.+.+.+.+.+.+.%.%.%.%.%.>.%.>.%.%.>.>.>.>.>.>.>.%.>.>.%.>.o 3.3.3.3.3.3.",
"3.3.3.3.3.3.7 >.......| +.+.+.+.U U U U U U E U E U E U E E E U E E U U >.%.%.>.>.o 3.3.3.3.3.3.",
"3.3.3.3.3.3.9 %.......| %.+.+.+.+.%.+.%.%.%.%.>.%.>.>.%.>.>.>.>.>.>.>.>.>.>.%.%.>.o 3.3.3.3.3.3.",
"3.3.3.3.3.3.3 >.+.....| +.+.+.+.U U U U U E E U E U U E E E U E U E E E >.%.>.>.>.o 3.3.3.3.3.3.",
"3.3.3.3.3.3.3 %.......| %...+.+.+.%.%.%.%.%.>.%.%.>.>.>.>.,.,.,.,.,.>.>.>.>.%.>.>.o 3.3.3.3.3.3.",
"3.3.3.3.3.3.1 >.+.......+.+.+.+.U U U U U E U E E E U E E E E E E E E E >.>.>.>.>.o 3.3.3.3.3.3.",
"3.3.3.3.3.3.1 >.+.....| %.+.+.+.+.%.%.%.%.%.>.%.%.>.>.>.>.>.,.,.,.,.,.,.>.>.>.%.>.o 3.3.3.3.3.3.",
"3.3.3.3.3.3.1 %.......| +.+.+.+.U U U U U U U U E U U U E E ,.,.2.,.,.,.>.>.>.>.>.o 3.3.3.3.3.3.",
"3.3.3.3.3.3., >.+.......+.+.+.+.+.%.+.%.%.%.%.>.>.%.>.>.>.>.>.,.,.2.,.,.>.>.%.%.>.o 3.3.3.3.3.3.",
"3.3.3.3.3.3.; %.......| %.+.+.+.+.+.%.%.%.>.%.>.%.>.>.>.>.>.>.>.,.,.,.,.>.>.>.>.>.o 3.3.3.3.3.3.",
"3.3.3.3.3.3.; %.+.....| +...+.+.%.+.%.+.%.%.>.%.%.>.%.>.%.>.>.>.>.>.>.>.>.%.%.>.>.o 3.3.3.3.3.3.",
"3.3.3.3.3.3.$ >.......| %.+.+.+.+.+.%.%.%.%.%.%.>.%.>.>.>.>.>.>.>.>.>.>.>.>.>.>.>.o 3.3.3.3.3.3.",
"3.3.3.3.3.3.# %.+.....| +.+.+.+.+.%.+.+.%.%.>.%.%.%.>.%.>.%.>.>.>.%.>.>.>.%.>.%.>.o 3.3.3.3.3.3.",
"3.3.3.3.3.3.# +.,.,.,.,.,.,.,.,.,.,.,.>.,.,.,.,.,.,.,.,.,.,.>.>.,.,.,.,.,.,.>.>.>.o 3.3.3.3.3.3.",
"3.3.3.3.3.3.  o . o . o o o . o o . o o . o . o o o o . o . o o o o . o o . o o o . 3.3.3.3.3.3.",
"3.3.3.3.3.3.3.3.3.3.3.3.3.3.3.3.3.3.3.3.3.3.3.3.3.3.3.3.3.3.3.3.3.3.3.3.3.3.3.3.3.3.3.3.3.3.3.3.",
"3.3.3.3.3.3.3.3.3.3.3.3.3.3.3.3.3.3.3.3.3.3.3.3.3.3.3.3.3.3.3.3.3.3.3.3.3.3.3.3.3.3.3.3.3.3.3.3.",
"3.3.3.3.3.3.3.3.3.3.3.3.3.3.3.3.3.3.3.3.3.3.3.3.3.3.3.3.3.3.3.3.3.3.3.3.3.3.3.3.3.3.3.3.3.3.3.3."
};
