/* XPM */
static char *RFM_icon_folder[] = {
/* columns rows colors chars-per-pixel */
"48 48 90 1 ",
"  c #3B424E",
". c #444444",
"X c #4B4B4B",
"o c gray33",
"O c gray36",
"+ c #58677B",
"@ c #646464",
"# c #63686C",
"$ c #6B6B6B",
"% c #616871",
"& c #6B6F73",
"* c #6D7175",
"= c #66717F",
"- c #757575",
"; c #72767B",
": c #75797D",
"> c #7A7A7A",
", c #2F5A93",
"< c #3F699F",
"1 c #3565A4",
"2 c #3867A6",
"3 c #3768A6",
"4 c #3968A5",
"5 c #3A6AA9",
"6 c #4F6785",
"7 c #546B88",
"8 c #5C6F88",
"9 c #476994",
"0 c #496A94",
"q c #456C9E",
"w c #506E92",
"e c #557094",
"r c #606F82",
"t c #63758D",
"y c #6F7B8A",
"u c #7A7D80",
"i c #747E8C",
"p c #426EA5",
"a c #4472AB",
"s c #4874AB",
"d c #4E79AE",
"f c #4375B0",
"g c #4E7CB7",
"h c #527DB3",
"j c #7C8084",
"k c #5A83B4",
"l c #5384BD",
"z c #5B86BB",
"x c #668CBC",
"c c #5688C1",
"v c #5F92C9",
"b c #638EC2",
"n c #698FC0",
"m c #6295CB",
"M c #6B9ACD",
"N c #7096C3",
"B c #7398C5",
"V c #729FCF",
"C c #7C9FCA",
"Z c #73A0CF",
"A c #7CA2CD",
"S c #75A1D0",
"D c #7BA5D2",
"F c #7FA8D3",
"G c #838383",
"H c #86888B",
"J c #8B8B8B",
"K c #939393",
"L c #9B9B9B",
"P c #A3A3A3",
"I c #ACACAC",
"U c #B4B4B4",
"Y c #BDBDBD",
"T c #84AAD3",
"R c #89AED7",
"E c #8EB2D8",
"W c #92B2D5",
"Q c #93B5DA",
"! c #97B9DC",
"~ c #9CBBDD",
"^ c #A3BFDE",
"/ c #A2BFE0",
"( c #A7C3E1",
") c #ACC7E3",
"_ c #AEC8E3",
"` c #B3CCE5",
"' c #B9D0E7",
"] c #C3C3C3",
"[ c #C9C9C9",
"{ c None",
/* pixels */
"{{{{{{{{{{{{{{{{{{{{{{{{{{{{{{{{{{{{{{{{{{{{{{{{",
"{{{{{{{{{{{{{{{{{{{{{{{{{{{{{{{{{{{{{{{{{{{{{{{{",
"{{{{{{{{{{{{{{{{{{{{{{{{{{{{{{{{{{{{{{{{{{{{{{{{",
"{{{{{{{{{{{{{{{{{{{{{{{{{{{{{{{{{{{{{{{{{{{{{{{{",
"{{{{{{{{{{{{{{{{{{{{{{{{{{{{{{{{{{{{{{{{{{{{{{{{",
"{{{{>>>>>->->>>>->>>{{{{{{{{{{{{{{{{{{{{{{{{{{{{",
"{{{>[[[[[[]]]Y]YY]YI-{{{{{{{{{{{{{{{{{{{{{{{{{{{",
"{{{-[UIPPPPPPLLLLLLI>{{{{{{{{{{{{{{{{{{{{{{{{{{{",
"{{{-YPKKKKJJJHGHGJGJJ{{{{{{{{{{{{{{{{{{{{{{{{{{{",
"{{{-YUPPPLLLLKKLKKKKK&{{{{{{{{{{{{{{{{{{{{{{{{{{",
"{{{-UPKJJJJGGGGGG>>>G&$$-$$$$$$$$$$$${{{{{{{{{{{",
"{{{-UILLLLKKKKJJJJJJJJKPIUUUUUUUUYUU${{{{{{{{{{{",
"{{{-ILJHGGG>>>>>>>>----->-->>>>GuGGJ${{{{{{{{{{{",
"{{{$IILKKKKJJJGHGGGGGGGGGGGHHHGJJKKK#{{{{{{{{{{{",
"{{{$PLHG>>u::;;*&-&$&&&&$&&**;-;::uu#{{{{{{{{{{{",
"{{{$LPKKp44444444444144444444444444444222314{{{{",
"{{{@KLj>4)'''''''''''''''''''''''''''''''')2{{{{",
"{{{@LPJH2`FFFFFFFFFFFFFFFFFFFFFFFFFFFFFFFR/2{{{{",
"{{{@JK>;p`FFFFFFFFFFFFFFFFFFFFFFFFFFFFFFTR!3{{{{",
"{{{@JPGid_FFFFFFFFFFFFFFFFFFFFFFFFFFFFFFDRW5{{{{",
"{{{OGK>=k)FFFFFFFFFFFFFFFFFFFFFFFFFFFFFFVRT4{{{{",
"{{{{HLGtn(FFFFFFFFFFFFFFFFFFFFFFFFFFFFFSVQC4{{{{",
"{{{{uJ-7N/FFFFFFFFFFFFFFFFFFFFFFFFFFFFSVV!B{{{{{",
"{{{{-LjwC~FFFFFFFFFFFFFFFFFFFFFFFFFFFZVZV~n{{{{{",
"{{{{-J&0T!TDTDFFFFFFFFFFFFFFFFFFFFFFZVVVV^z{{{{{",
"{{{{-K>0E!DTFTFFFFFFFFFFFFFFFFFFFTSZVVVVV(h{{{{{",
"{{{{$H$pQEFFFFFFFFFFFFFFFFFFFFFFDZVVVVVVV(a{{{{{",
"{{{{@K>4!RFFFFFFFFFFFFFFFDDDDDVVVVVZVVVVV(4{{{{{",
"{{{{@G$<~TFFFFFTFFDSSZZVVVVVVVVVZVVVVVVVZ~1{{{{{",
"{{{{OJ-1~TFFFFDSVVVVVVZZVVVVVVVVVVVVVVVVDW3{{{{{",
"{{{{oG%4!FFDSVVVVVVVVVVVVVVVVVVVVVZVVVVVDT3{{{{{",
"{{{{oKrsESVVVVZVVVZVZVVVZVVVVVVVVZVVVVVVDF3{{{{{",
"{{{{XG+dTVVVVVVVVVMVVVVMVVVVVVMVVMVMVVMVSM3{{{{{",
"{{{{XJ8dFMMMMMMMMMMMMMMMMMMMMMMMMMMMMMMMSv3{{{{{",
"{{{{XG6lVMMMMMMMMMMMMMMMmMMmMMMmMMMMMMmmVc1{{{{{",
"{{{{.H0lMmmMmmMmmMmmmMmmMmMmmmmmmmmmmmmmMg,{{{{{",
"{{{{.G9lmmmmmmmmmvmmmmmmvmmmmvvmmmmmvmmmmf{{{{{{",
"{{{{.Hqlmvmmmmmmmmmmmvmvmvmvmmmmmmvmvmmmm5{{{{{{",
"{{{{.t<vmmvmvmmmvmmvvmmmmmmmvmvmvmmmmvmvc1{{{{{{",
"{{{{ <11111111111111111111111111111111111{{{{{{{",
"{{{{{{{{{{{{{{{{{{{{{{{{{{{{{{{{{{{{{{{{{{{{{{{{",
"{{{{{{{{{{{{{{{{{{{{{{{{{{{{{{{{{{{{{{{{{{{{{{{{",
"{{{{{{{{{{{{{{{{{{{{{{{{{{{{{{{{{{{{{{{{{{{{{{{{",
"{{{{{{{{{{{{{{{{{{{{{{{{{{{{{{{{{{{{{{{{{{{{{{{{",
"{{{{{{{{{{{{{{{{{{{{{{{{{{{{{{{{{{{{{{{{{{{{{{{{",
"{{{{{{{{{{{{{{{{{{{{{{{{{{{{{{{{{{{{{{{{{{{{{{{{",
"{{{{{{{{{{{{{{{{{{{{{{{{{{{{{{{{{{{{{{{{{{{{{{{{",
"{{{{{{{{{{{{{{{{{{{{{{{{{{{{{{{{{{{{{{{{{{{{{{{{"
};
