/* XPM */
static char *RFM_icon_home[] = {
/* columns rows colors chars-per-pixel */
"22 22 109 2 ",
"   c #555753",
".  c #7B4C4A",
"X  c #656763",
"o  c gray46",
"O  c #757676",
"+  c #72757A",
"@  c #75787B",
"#  c #77787A",
"$  c #75787C",
"%  c #76797C",
"&  c #76797D",
"*  c #9C0808",
"=  c #A40000",
"-  c #842221",
";  c #DC2525",
":  c #DC2626",
">  c #DE2626",
",  c #E02626",
"<  c #E22727",
"1  c #E53939",
"2  c #885A58",
"3  c #995D5B",
"4  c #9D7573",
"5  c #EC4646",
"6  c #F14C4C",
"7  c #F05151",
"8  c #F25555",
"9  c #F35B5B",
"0  c #F25E5E",
"q  c #F36363",
"w  c #F36464",
"e  c #F46666",
"r  c #F46C6C",
"t  c #F47575",
"y  c #7E807B",
"u  c #7F817C",
"i  c #8A8865",
"p  c #898870",
"a  c #80827D",
"s  c #88897E",
"d  c #3465A4",
"f  c #6E7681",
"g  c #717881",
"h  c #4A76AE",
"j  c #5F86B7",
"k  c #7798C2",
"l  c #7999C3",
"z  c #848681",
"x  c #848582",
"c  c #858782",
"v  c #868883",
"b  c #878984",
"n  c #888A85",
"m  c #8F908D",
"M  c #979994",
"N  c #989996",
"B  c #999A96",
"V  c #999A97",
"C  c #9B9B9A",
"Z  c #A38D8B",
"A  c #A79F9D",
"S  c #9FA09E",
"D  c #A1A09E",
"F  c #A2A3A1",
"G  c #A2A2A2",
"H  c #A3A3A2",
"J  c gray64",
"K  c #A4A4A4",
"L  c #B1B3B6",
"P  c #B8B9B8",
"I  c #BABAB9",
"U  c #BABBBC",
"Y  c #BFBFBE",
"T  c #C08A8A",
"R  c #C4A1A1",
"E  c #C9B5B5",
"W  c #B8BCC1",
"Q  c #B9BDC1",
"!  c #C2C2C1",
"~  c #D7D7D7",
"^  c #DCD0D0",
"/  c #D8D8D8",
"(  c #DADADA",
")  c #DBDCDB",
"_  c #DDDDDD",
"`  c #DEDEDD",
"'  c gray87",
"]  c #E2DEDE",
"[  c gray88",
"{  c #E2E2E2",
"}  c gray89",
"|  c #E4E4E4",
" . c gray90",
".. c #E6E6E6",
"X. c #E7E7E7",
"o. c #E9E9E9",
"O. c #EAEAEA",
"+. c gray92",
"@. c #ECECEC",
"#. c gray93",
"$. c #EEEEEE",
"%. c #EFEFEF",
"&. c gray94",
"*. c #F1F1F1",
"=. c gray95",
"-. c #F3F3F3",
";. c #F8F8F8",
":. c #F9F9F9",
">. c None",
/* pixels */
">.>.>.>.>.>.>.>.>.>.= = >.>.>.>.>.>.>.>.>.>.",
">.>.>.>.>.>.>.>.>.= t t = >.>.>.>.>.>.>.>.>.",
">.>.>.>.>.>.>.>.= t t t t = >.>.>.>.>.>.>.>.",
">.>.>.>.>.>.>.= t 1 t t < t = >.>.>.>.>.>.>.",
">.>.>.>.>.>.= t 5 6 t t < < t = >.>.>.>.>.>.",
">.>.>.>.>.= t 7 8 t = = t < < t = >.>.>.>.>.",
">.>.>.>.= t 9 0 t = . 2 = t : < t = >.>.>.>.",
">.>.>.= t w w t = 3 x C T = t : < t = >.>.>.",
">.>.= t r e t = 4 m P ! P R = t : < t = >.>.",
">.>.= t w t = Z S Y ` ` ` ~ E * t : t = >.>.",
">.>.= t t = D H ( +.+.+.X.+.X.^ * t t = >.>.",
">.>.= t - D F / ..........} ..} [ * t = >.>.",
">.>.>.= )           +...# % o % # &.= >.>.>.",
">.>.>.  %.  y y u u ....% l o k % &.  >.>.>.",
">.>.>.  @.  x x x x } } $ j o h + &.  >.>.>.",
">.>.>.  @.  v v i p } [ g d o d f &.  >.>.>.",
">.>.>.  @.  n n s a [ :.L W U W K %.  >.>.>.",
">.>.>.  +.  n n n n ] :.H H J H J `   >.>.>.",
">.>.>.  %.X M N N N -.%.$.$.$.$.$.;.  >.>.>.",
">.>.>.                                >.>.>.",
">.>.>.>.>.>.>.>.>.>.>.>.>.>.>.>.>.>.>.>.>.>.",
">.>.>.>.>.>.>.>.>.>.>.>.>.>.>.>.>.>.>.>.>.>."
};
