/* XPM */
static char *RFM_icon_information[] = {
/* columns rows colors chars-per-pixel */
"22 22 172 2 ",
"   c gray27",
".  c #545451",
"X  c #565655",
"o  c #4E586D",
"O  c #666A65",
"+  c #6A6B64",
"@  c #616472",
"#  c #616573",
"$  c #616574",
"%  c #616675",
"&  c #636774",
"*  c #626775",
"=  c #636775",
"-  c #616676",
";  c #616677",
":  c #616777",
">  c #646774",
",  c #636876",
"<  c #626877",
"1  c #616778",
"2  c #626778",
"3  c #636878",
"4  c #696E7C",
"5  c #6D717F",
"6  c #A7A75F",
"7  c #858560",
"8  c #898966",
"9  c #C1C17E",
"0  c #717481",
"q  c #727680",
"w  c #757A89",
"e  c #787C8A",
"r  c #7A7F8D",
"t  c #7E818F",
"y  c #719AC8",
"u  c #789ECF",
"i  c #7FA4CE",
"p  c #81858E",
"a  c #949890",
"s  c #9AA08B",
"d  c #A1A585",
"f  c #B7B985",
"g  c #B9BB85",
"h  c #B4B588",
"j  c #A2A495",
"k  c #BCBC98",
"l  c #949CAC",
"z  c #959EB2",
"x  c #9FA7B9",
"c  c #D7D8A0",
"v  c #E2E4AD",
"b  c #E3E5B2",
"n  c #E7E9BE",
"m  c #80A4CD",
"M  c #80A5CE",
"N  c #84A7D2",
"B  c #85A9D0",
"V  c #89ABD1",
"C  c #89ABD2",
"Z  c #8BADD1",
"A  c #8DAED2",
"S  c #8DAED3",
"D  c #87A9D9",
"F  c #89AAD8",
"G  c #92B2D4",
"H  c #92B2D5",
"J  c #93B2D6",
"K  c #94B4D5",
"L  c #96B4D7",
"P  c #98B5D7",
"I  c #95B3D8",
"U  c #9BB8D8",
"Y  c #9DB9D8",
"T  c #9DB8D9",
"R  c #9DB9D9",
"E  c #AEB2C0",
"W  c #A7B6CB",
"Q  c #B0BACD",
"!  c #A5BFDC",
"~  c #B2BBD0",
"^  c #A4BCE4",
"/  c #BFC7CA",
"(  c #A9C2DD",
")  c #ACC4DF",
"_  c #BCC4D2",
"`  c #BCC7D4",
"'  c #B6C3DC",
"]  c #ABC2E0",
"[  c #B1C7E3",
"{  c #BAC6E0",
"}  c #B1C8E0",
"|  c #B6CBE3",
" . c #B9C9E1",
".. c #B8CCE5",
"X. c #BACEE4",
"o. c #BBCEE5",
"O. c #B5C9E8",
"+. c #B6C9E9",
"@. c #C1C6CD",
"#. c #D6DAC2",
"$. c #C0C9D7",
"%. c #C7CFD9",
"&. c #C5CCDC",
"*. c #CDD1DD",
"=. c #DADCD6",
"-. c #D7D9DB",
";. c #F1F3CC",
":. c #F2F4D1",
">. c #F7F9D0",
",. c #F7FAD2",
"<. c #C3CEE4",
"1. c #C2CFE6",
"2. c #C0D2E6",
"3. c #C1D3E6",
"4. c #C0D2E7",
"5. c #C0D3E7",
"6. c #C2D2E6",
"7. c #C2D3E7",
"8. c #C5D5E8",
"9. c #C5D6E8",
"0. c #C6D6EB",
"q. c #CAD5EA",
"w. c #CAD5EB",
"e. c #CDD6E9",
"r. c #CAD7EE",
"t. c #C8D8E9",
"y. c #C9D8EA",
"u. c #C9D9EA",
"i. c #CBDAEA",
"p. c #CCDBEB",
"a. c #CDDBEB",
"s. c #CDDCEB",
"d. c #CEDBED",
"f. c #CFDAEE",
"g. c #CDDCEC",
"h. c #CFDDEC",
"j. c #DADEE2",
"k. c #D3DBEC",
"l. c #D0DDEC",
"z. c #D0DDED",
"x. c #D0DEEC",
"c. c #D1DFED",
"v. c #D2DFEE",
"b. c #D6DEEF",
"n. c #D4E0EE",
"m. c #D5E1EE",
"M. c #D6E0F3",
"N. c #DDE3F2",
"B. c #DAE3F4",
"V. c #DEE5F6",
"C. c #DEE8F2",
"Z. c #E2E5E9",
"A. c #E3E6ED",
"S. c #E3EBF4",
"D. c #E6EDF5",
"F. c #E9EBF1",
"G. c #E8ECFA",
"H. c #EBEEFB",
"J. c #EAF0F7",
"K. c #EDF2F8",
"L. c #EDF1FC",
"P. c #F2F5FA",
"I. c #F4F7FA",
"U. c #F0F2FE",
"Y. c #F6F8FB",
"T. c #F9FBFC",
"R. c #FCFDFD",
"E. c #FCFDFE",
"W. c #FDFDFE",
"Q. c #FDFEFE",
"!. c #FEFEFE",
"~. c None",
/* pixels */
"~.~.~.~.~.~.~.~.3 1 # $ 3 ~.~.~.~.~.~.~.~.~.",
"~.~.~.~.~.~.3 x 1.f.M.w.' z 3 ~.~.~.~.~.~.~.",
"~.~.~.~.~.w ' O.F I G A C [ e.t ~.~.~.~.~.~.",
"~.~.~.~.$ e.^ N | 6.6.o.] i G b.4 ~.~.~.~.~.",
"~.~.~.# ~ +.u 8.p.s.s.s.u.G i ) Q # ~.~.~.~.",
"~.~.~.1 1.F K t.p.s.x.s.s.Y A G k.< ~.~.~.~.",
"~.~.~.$ r.y C t.s.x.n.n.o.) U A G.# ~.~.~.~.",
"~.~.~.1  .i B [ u.n.n.t.X.O.! Y V.= ~.~.~.~.",
"~.~.~.1 W P A D.C.6.7.x.K.P.Y ..&.= ~.~.~.~.",
"~.~.~.~.w 6.P D.T.E.E.E.E.Y.o.H.t ~.~.~.~.~.",
"~.~.~.~.$ l d.u.Y.~.~.~.E.K.V.E $ ~.~.~.~.~.",
"~.~.~.~.~.< _ 0.J.~.~.~.E.L.*.= ~.~.~.~.~.~.",
"~.~.~.~.~.~.5 B.` %.~.~.~.U.0 ~.~.~.~.~.~.~.",
"~.~.~.~.~.~.= $./ a #.j =.A.= ~.~.~.~.~.~.~.",
"~.~.~.~.~.~.~.0 @.j.F.Z.-.p ~.~.~.~.~.~.~.~.",
"~.~.~.~.~.~.~.o s f g g d O ~.~.~.~.~.~.~.~.",
"~.~.~.~.~.~.~.8 6 :.,.b h 8 ~.~.~.~.~.~.~.~.",
"~.~.~.~.~.~.~.~.8 9 v c 8 ~.~.~.~.~.~.~.~.~.",
"~.~.~.~.~.~.~.8 9 ;.,.n k 8 ~.~.~.~.~.~.~.~.",
"~.~.~.~.~.~.~.~.7 X + . 8 ~.~.~.~.~.~.~.~.~.",
"~.~.~.~.~.~.~.~.~.X   X ~.~.~.~.~.~.~.~.~.~.",
"~.~.~.~.~.~.~.~.~.~.~.~.~.~.~.~.~.~.~.~.~.~."
};
