/* XPM */
static char *RFM_icon_mounted[] = {
/* columns rows colors chars-per-pixel */
"20 20 184 2 ",
"   c #254A01",
".  c #264C02",
"X  c #2C5701",
"o  c #2E5A01",
"O  c #2F5E02",
"+  c #2F5F02",
"@  c #316302",
"#  c #336302",
"$  c #336402",
"%  c #336403",
"&  c #336503",
"*  c #346501",
"=  c #346701",
"-  c #346402",
";  c #346503",
":  c #346703",
">  c #376804",
",  c #3A6B08",
"<  c #3E6D0D",
"1  c #416F11",
"2  c #49880D",
"3  c #4A880D",
"4  c #4E900C",
"5  c #4E910C",
"6  c #509E07",
"7  c #519F07",
"8  c #4C8812",
"9  c #4D8912",
"0  c #538F1A",
"q  c #569F12",
"w  c #53901A",
"e  c #55A508",
"r  c #56A709",
"t  c #59AC0A",
"y  c #5AAE0A",
"u  c #5BAB0F",
"i  c #5CB00B",
"p  c #5DB10B",
"a  c #5DB20C",
"s  c #5EB40C",
"d  c #5FB50C",
"f  c #5CAA12",
"g  c #5EAB13",
"h  c #5EAC13",
"j  c #5FAE15",
"k  c #5CA518",
"l  c #5DA518",
"z  c #60B70D",
"x  c #61B80D",
"c  c #61B90D",
"v  c #62B90D",
"b  c #62BA0D",
"n  c #63BB0E",
"m  c #64BC0E",
"M  c #64BD0E",
"N  c #65BE0F",
"B  c #65BF0F",
"V  c #63AA1F",
"C  c #60B013",
"Z  c #61B214",
"A  c #61B016",
"S  c #63B317",
"D  c #65B418",
"F  c #67B619",
"G  c #66B61A",
"H  c #67B61A",
"J  c #66B31C",
"K  c #67B51C",
"L  c #68B71C",
"P  c #69B91C",
"I  c #5A8E29",
"U  c #5A8C2A",
"Y  c #5F8F30",
"T  c #689F33",
"R  c #689F34",
"E  c #68973A",
"W  c #63A127",
"Q  c #65AB20",
"!  c #64AC20",
"~  c #69AF26",
"^  c #64A228",
"/  c #6AAE29",
"(  c #69A92C",
")  c #6BAB2F",
"_  c #6FBD24",
"`  c #6BB128",
"'  c #6DB329",
"]  c #6DB42A",
"[  c #6EB42B",
"{  c #6EB52B",
"}  c #6EB32C",
"|  c #6EB22D",
" . c #70BF24",
".. c #73BD2A",
"X. c #74BF2B",
"o. c #6CAB30",
"O. c #6DAD30",
"+. c #71AF36",
"@. c #71AF37",
"#. c #74AE3C",
"$. c #75AF3C",
"%. c #72B037",
"&. c #73B137",
"*. c #72B138",
"=. c #74B33A",
"-. c #76B43B",
";. c #76B33D",
":. c #76B43C",
">. c #77B43C",
",. c #67C10F",
"<. c #67C20F",
"1. c #67C210",
"2. c #68C210",
"3. c #68C310",
"4. c #68C410",
"5. c #6AC610",
"6. c #6AC711",
"7. c #69C114",
"8. c #6AC214",
"9. c #6AC017",
"0. c #6BC811",
"q. c #6CC911",
"w. c #6CCA11",
"e. c #6DCB12",
"r. c #6ECC12",
"t. c #6ECD12",
"y. c #6FCE12",
"u. c #6FCE13",
"i. c #71CF15",
"p. c #71C71D",
"a. c #72C81D",
"s. c #74CA1F",
"d. c #74CC1F",
"f. c #70D013",
"g. c #71D113",
"h. c #72D213",
"j. c #72D314",
"k. c #72D016",
"l. c #72D414",
"z. c #73D414",
"x. c #73D514",
"c. c #74D514",
"v. c #74D715",
"b. c #75D715",
"n. c #76D717",
"m. c #76D915",
"M. c #77DA15",
"N. c #77DB16",
"B. c #78DC16",
"V. c #79DD16",
"C. c #7ADF17",
"Z. c #74D11A",
"A. c #75D21A",
"S. c #76D519",
"D. c #76D619",
"F. c #7AE017",
"G. c #7CE217",
"H. c #7CE318",
"J. c #74C623",
"K. c #74C824",
"L. c #76A648",
"P. c #7CB446",
"I. c #7DB548",
"U. c #7EB549",
"Y. c #7FB64A",
"T. c #7FB64B",
"R. c #7CAB50",
"E. c #81B74D",
"W. c #80B54E",
"Q. c #81B74E",
"!. c #82B84F",
"~. c #83B850",
"^. c #86BA55",
"/. c #8BBD5C",
"(. c #8CBD5D",
"). c #8CBE5E",
"_. c #8DBE5F",
"`. c #8EBD61",
"'. c #8FBF61",
"]. c #90BB65",
"[. c #98C46F",
"{. c #99C56F",
"}. c #9AC671",
"|. c None",
/* pixels */
"|.|.|.|.|.|.|.|.|.|.|.|.|.|.|.|.|.|.|.|.",
"|.|.|.|.|.|.|.@ - % % = % |.|.|.|.|.|.|.",
"|.|.|.|.|.- 1 E R.].].R.E 1 - |.|.|.|.|.",
"|.|.|.|.% Y '.).{.}.}.{.).'.Y - |.|.|.|.",
"|.|.|.- L.W.^.'.).).).).).~.W.L.% |.|.|.",
"|.|.- I P.O.!.!.W.E.I.E.I.I.( P.U : |.|.",
"|.|.< W.q @.;.>.-.-.-.*.*.%.) k T.< |.|.",
"|.@ I O.7 / | | ] ] ] ' ` Q V 6 o.I % |.",
"|.% ( V r j J J H H D D S S u e V ( % |.",
"|.% #.h y a s n n n n n z s y t h #.% |.",
"|.- %.S s n m M ,.2.2.,.M n z a C %.- |.",
"|.: W L n m 1.6.w.w.w.w.6.,.M z L ^ - |.",
"|.@ w  .M 6.w.y.g.g.g.h.y.6.2.n _ 0 @ |.",
"|.|., X.7.w.y.z.M.B.M.c.h.y.6.7..., |.|.",
"|.|.- 9 K.w.f.z.C.H.G.C.z.y.0.J.8 % |.|.",
"|.|.|.: k K.g.z.M.H.C.M.z.i.s.l : |.|.|.",
"|.|.|.|.: 3 p.A.M.c.n.D.A.p.3 : |.|.|.|.",
"|.|.|.|.|.o > 5 h P 9.g 5 : X |.|.|.|.|.",
"|.|.|.|.|.|.|.. + - @ O   |.|.|.|.|.|.|.",
"|.|.|.|.|.|.|.|.|.|.|.|.|.|.|.|.|.|.|.|."
};
