/* XPM */
static char *RFM_icon_refresh[] = {
/* columns rows colors chars-per-pixel */
"22 22 166 2 ",
"   c #2F598F",
".  c #315B91",
"X  c #345F97",
"o  c #3665A2",
"O  c #3667A3",
"+  c #3365A4",
"@  c #3465A4",
"#  c #3565A4",
"$  c #3465A5",
"%  c #3565A5",
"&  c #3466A4",
"*  c #3566A4",
"=  c #3566A5",
"-  c #3666A4",
";  c #3667A4",
":  c #3767A4",
">  c #3666A5",
",  c #3766A5",
"<  c #3667A5",
"1  c #3767A5",
"2  c #3667A6",
"3  c #3767A6",
"4  c #3768A5",
"5  c #3768A6",
"6  c #3768A7",
"7  c #3C69A3",
"8  c #3868A6",
"9  c #3968A6",
"0  c #3869A6",
"q  c #3969A6",
"w  c #3868A7",
"e  c #3969A7",
"r  c #3B69A6",
"t  c #3A69A7",
"y  c #3A6AA7",
"u  c #3B6AA7",
"i  c #3B6BA7",
"p  c #3A6AA8",
"a  c #3B6AA8",
"s  c #3A6BA8",
"d  c #3B6BA8",
"f  c #3A6AA9",
"g  c #3D6BA8",
"h  c #3C6CA8",
"j  c #3D6CA8",
"k  c #3D6CA9",
"l  c #3E6DA9",
"z  c #3F6FA9",
"x  c #3E6DAB",
"c  c #3E6EAB",
"v  c #3F6EAB",
"b  c #416EA8",
"n  c #406EA9",
"m  c #406EAA",
"M  c #406FAB",
"N  c #4471AA",
"B  c #4170AC",
"V  c #4371AC",
"C  c #4572AC",
"Z  c #4674AE",
"A  c #4774AE",
"S  c #4C78AF",
"D  c #4776B0",
"F  c #4C78B0",
"G  c #4D7AB0",
"H  c #4E7AB1",
"J  c #4E7AB4",
"K  c #507BB2",
"L  c #507CB2",
"P  c #537EB3",
"I  c #557EB3",
"U  c #5781B5",
"Y  c #5A83B7",
"T  c #6A8EBC",
"R  c #6A90BF",
"E  c #628DC3",
"W  c #658EC4",
"Q  c #6F95C1",
"!  c #6C96CA",
"~  c #7297C3",
"^  c #7398C5",
"/  c #779AC5",
"(  c #729FCF",
")  c #749FCF",
"_  c #7FA0C7",
"`  c #7EA1CA",
"'  c #7FA2CB",
"]  c #7FA4CC",
"[  c #82A3CB",
"{  c #87A5CA",
"}  c #84A4CC",
"|  c #85A6CD",
" . c #94B1D3",
".. c #93B2D6",
"X. c #91B4D9",
"o. c #94B6DA",
"O. c #96B7DB",
"+. c #9AB8DA",
"@. c #9DB9D9",
"#. c #9FB9D9",
"$. c #9BBADC",
"%. c #A0BBDB",
"&. c #A0BCDA",
"*. c #A1BEDD",
"=. c #A2BEDD",
"-. c #A3BFDD",
";. c #A0BEDE",
":. c #A6C0DD",
">. c #A7C0DD",
",. c #A8C2DE",
"<. c #A6C2E0",
"1. c #AAC4E1",
"2. c #AAC6E2",
"3. c #ADC6E1",
"4. c #AFC7E1",
"5. c #ACC6E2",
"6. c #AEC8E2",
"7. c #AEC8E3",
"8. c #AFC9E3",
"9. c #B0C8E2",
"0. c #B1C9E3",
"q. c #B2C9E2",
"w. c #B4C9E2",
"e. c #B0C9E4",
"r. c #B1CAE4",
"t. c #B3CAE4",
"y. c #B4CCE5",
"u. c #B5CCE5",
"i. c #B6CDE5",
"p. c #B7CDE5",
"a. c #B6CDE6",
"s. c #B7CDE6",
"d. c #B8CDE5",
"f. c #BACFE6",
"g. c #BBD0E7",
"h. c #BBD1E7",
"j. c #BBD1E8",
"k. c #BDD2E8",
"l. c #C0D2E6",
"z. c #C0D4E9",
"x. c #C1D5EA",
"c. c #C3D6EA",
"v. c #C5D5E8",
"b. c #C8D8E9",
"n. c #C8DAEC",
"m. c #C9DAEC",
"M. c #CADBEC",
"N. c #CDDDED",
"B. c #CDDDEE",
"V. c #D1DFEE",
"C. c #D4E2F0",
"Z. c #D5E2F0",
"A. c #D8E3F1",
"S. c #D9E4F0",
"D. c #DAE5F1",
"F. c #DBE6F2",
"G. c #DCE6F2",
"H. c #DCE7F3",
"J. c #E0E9F3",
"K. c #E0E9F4",
"L. c #E1EAF4",
"P. c #E2EBF5",
"I. c #E3ECF5",
"U. c #E4ECF5",
"Y. c #E5EDF6",
"T. c None",
/* pixels */
"T.T.T.T.T.T.T.T.T.T.T.T.T.T.T.T.T.T.T.T.T.T.",
"T.T.T.T.T.T.T.T.T.T.T.T.T.T.T.T.T.T.T.T.T.T.",
"T.T.T.T.T.T.d d * * u d u T.T.T.T.T.T.* T.T.",
"T.T.T.T.d d / %.5.8.>.#.` F * T.T.T.5 + T.T.",
"T.T.T.u Y i.9.&.5.i.f.h.j.j.5.Q u * ^ A T.T.",
"T.T.T.C #.F * u 1 5 F | i.i.<.9.*.` x.C T.T.",
"T.T.u P u x M * T.T.T.u s ` r.O.X.i.m.x T.T.",
"T.T.u * J E u T.T.T.T.T.T.u S ,.8.) B.x T.T.",
"T.T.d M ! T.d T.T.T.T.T.T.T.x w.o.( C.d T.T.",
"T.T.* T.T.T.T.T.T.T.T.T.T.u >.m.B.C.H.3 T.T.",
"T.T.T.T.T.T.T.T.T.T.T.T.+ * u u d * * * T.T.",
"T.T.3 * * * * * * * T.T.T.T.T.T.T.T.T.T.T.T.",
"T.T.* F.K.K.K.S.I T.T.T.T.T.T.T.T.T.T.* T.T.",
"T.T.* K.*.*.D.[ 5 T.T.T.T.T.T.d T.T.B d T.T.",
"T.T.3 K.$.k.D.P u T.T.T.T.T.T.5 W A + x T.T.",
"T.T.* Y.M.5.x.H.[ 5 5 T.T.T.* x x V C T.T.T.",
"T.T.* Y.k.A.V.1.z.f.[ T K g M Y [  .u T.T.T.",
"T.T.* v.u u { b.i.i.u.r.r.r.5.1.+.x T.T.T.T.",
"T.T.* C T.T.T.7 T  .9.k.i.9.-.~ u   T.T.T.T.",
"T.T.* T.T.T.T.T.T.. O O M 1 1 X T.T.T.T.T.T.",
"T.T.T.T.T.T.T.T.T.T.T.T.T.T.T.T.T.T.T.T.T.T.",
"T.T.T.T.T.T.T.T.T.T.T.T.T.T.T.T.T.T.T.T.T.T."
};
