/* XPM */
static char *RFM_icon_stop[] = {
/* columns rows colors chars-per-pixel */
"22 22 251 2 ",
"   c #560000",
".  c #5E0000",
"X  c #6E0000",
"o  c #740000",
"O  c #820000",
"+  c #830000",
"@  c #840000",
"#  c #860000",
"$  c #880000",
"%  c #890000",
"&  c #890404",
"*  c #880505",
"=  c #890707",
"-  c #8C0707",
";  c #890808",
":  c #8A0909",
">  c #990D0D",
",  c #9B0F0F",
"<  c #9C1010",
"1  c #9D1212",
"2  c #9F1414",
"3  c #A20F0F",
"4  c #A80F0F",
"5  c #B50000",
"6  c #B30606",
"7  c #B50606",
"8  c #B90000",
"9  c #BA0000",
"0  c #BB0000",
"q  c #BD0000",
"w  c #BE0000",
"e  c #BF0000",
"r  c #BB0404",
"t  c #BD0404",
"y  c #BF0404",
"u  c #AC1111",
"i  c #BF1616",
"p  c #BA1C1C",
"a  c #BA1D1D",
"s  c #A92A2A",
"d  c #A92B2B",
"f  c #AB2B2B",
"g  c #AC2A2A",
"h  c #AC2E2E",
"j  c #B72828",
"k  c #BB2929",
"l  c #BE2E2E",
"z  c #AF3232",
"x  c #AF3535",
"c  c #B63535",
"v  c #BF3030",
"b  c #B03939",
"n  c #B03B3B",
"m  c #B13E3E",
"M  c #C00000",
"N  c #C10000",
"B  c #C20000",
"V  c #C30000",
"C  c #C50000",
"Z  c #C60000",
"A  c #C00505",
"S  c #C20505",
"D  c #C30505",
"F  c #C80000",
"G  c #CB0000",
"H  c #CB0B0B",
"J  c #CF1010",
"K  c #CB1616",
"L  c #C21D1D",
"P  c #C31F1F",
"I  c #D11D1D",
"U  c #D31E1E",
"Y  c #D51F1F",
"T  c #C52020",
"R  c #C62020",
"E  c #C82424",
"W  c #C82727",
"Q  c #C72929",
"!  c #CA2C2C",
"~  c #D82020",
"^  c #D92A2A",
"/  c #CB3333",
"(  c #CD3131",
")  c #CC3434",
"_  c #CE3535",
"`  c #CD3636",
"'  c #CF3737",
"]  c #CB3B3B",
"[  c #CF3838",
"{  c #C83C3C",
"}  c #D03838",
"|  c #D13939",
" . c #D13A3A",
".. c #D13B3B",
"X. c #D23B3B",
"o. c #D23C3C",
"O. c #D23D3D",
"+. c #D13F3F",
"@. c #D43C3C",
"#. c #D73F3F",
"$. c #D83D3D",
"%. c #D83E3E",
"&. c #D83F3F",
"*. c #BB4444",
"=. c #BD4444",
"-. c #BD4747",
";. c #C14343",
":. c #C54242",
">. c #C54343",
",. c #C04545",
"<. c #C14747",
"1. c #C24646",
"2. c #C44444",
"3. c #CC4545",
"4. c #CD4646",
"5. c #C54949",
"6. c #C44B4B",
"7. c #CC4848",
"8. c #CD4949",
"9. c #CE4C4C",
"0. c #CD4E4E",
"q. c #CC4F4F",
"w. c #D94141",
"e. c #D94242",
"r. c #D94343",
"t. c #D94444",
"y. c #D94545",
"u. c #DA4646",
"i. c #DA4747",
"p. c #D44F4F",
"a. c #DA4848",
"s. c #DA4949",
"d. c #DA4A4A",
"f. c #DB4B4B",
"g. c #DA4C4C",
"h. c #DB4C4C",
"j. c #DB4D4D",
"k. c #DB4F4F",
"l. c #DD4F4F",
"z. c #C05151",
"x. c #C15353",
"c. c #C05454",
"v. c #C15555",
"b. c #C25555",
"n. c #C05757",
"m. c #C25757",
"M. c #C55656",
"N. c #CC5151",
"B. c #CE5252",
"V. c #C35C5C",
"C. c #C55D5D",
"Z. c #C45F5F",
"A. c #C55F5F",
"S. c #C95959",
"D. c #CB5B5B",
"F. c #CE5F5F",
"G. c #D05555",
"H. c #DA5050",
"J. c #DB5353",
"K. c #DC5050",
"L. c #DC5151",
"P. c #DC5252",
"I. c #DF5252",
"U. c #E44545",
"Y. c #E94B4B",
"T. c #EA4D4D",
"R. c #E45353",
"E. c #E15555",
"W. c #E15757",
"Q. c #E45454",
"!. c #EA5252",
"~. c #E95656",
"^. c #EB5656",
"/. c #E65858",
"(. c #E75B5B",
"). c #E95A5A",
"_. c #E85D5D",
"`. c #E85F5F",
"'. c #ED5D5D",
"]. c #C56262",
"[. c #C56363",
"{. c #C66262",
"}. c #C66363",
"|. c #C76464",
" X c #C66767",
".X c #C86666",
"XX c #CC7676",
"oX c #CC7B7B",
"OX c #CB7C7C",
"+X c #E36161",
"@X c #E56262",
"#X c #E36464",
"$X c #EA6262",
"%X c #ED6666",
"&X c #EF6666",
"*X c #E46868",
"=X c #E56A6A",
"-X c #EF6969",
";X c #EC6A6A",
":X c #ED6C6C",
">X c #EF6C6C",
",X c #EC6F6F",
"<X c #EA7272",
"1X c #EF7676",
"2X c #F17B7B",
"3X c #CF8888",
"4X c #D59595",
"5X c #F28181",
"6X c #F28888",
"7X c #F48989",
"8X c #F58C8C",
"9X c #F58D8D",
"0X c #F58E8E",
"qX c #F48F8F",
"wX c #F58F8F",
"eX c #F69090",
"rX c #F49393",
"tX c #F69292",
"yX c #F49494",
"uX c #F49595",
"iX c #F69696",
"pX c #F79898",
"aX c #F79999",
"sX c #F79A9A",
"dX c #F79B9B",
"fX c #D9A2A2",
"gX c #E4BCBC",
"hX c #DDD3D3",
"jX c #DED4D4",
"kX c #DFD5D5",
"lX c #E5D5D5",
"zX c #E5D6D6",
"xX c #E6D6D6",
"cX c #E2D8D8",
"vX c #E6D8D8",
"bX c #E6D9D9",
"nX c #E8DFDF",
"mX c #E6E2E2",
"MX c #EAE2E2",
"NX c #EBE3E3",
"BX c #EEE3E3",
"VX c #E9E4E4",
"CX c gray92",
"ZX c #EDECEC",
"AX c #EEEEEE",
"SX c #F1E3E3",
"DX c #F0E4E4",
"FX c #F5E6E6",
"GX c #F6EAEA",
"HX c #F0EEEE",
"JX c None",
/* pixels */
"JXJXJXJXJXJXJXJXJXJXJXJXJXJXJXJXJXJXJXJXJXJX",
"JXJXJXJXJXJX$ $ $ $ $ $ % % $ % JXJXJXJXJXJX",
"JXJXJXJXJX$ m uXdXaXaXuXiXtX7Xg $ JXJXJXJXJX",
"JXJXJXJX# n uX=Xl.l.d.d.u.t.W.5Xf $ JXJXJXJX",
"JXJXJX$ b uX=XJ.K.j.d.d.u.t.w.E.2Xd $ JXJXJX",
"JXJX$ x uX*XJ.S.G.J.j.d.a.4.5.&.R.1Xd $ JXJX",
"JX$ z rX+XH.S.3X[.B.j.d.8.c.oX1.X.l.<Xd $ JX",
"JX& qX+Xj.H.-.kXhXZ.0.p.c.vXMX-.] X.d.:X; JX",
"JX- tXa.d.j.B.[.jXjXV.m.vXMXZ.:.X.' ' -X; JX",
"JX- qXu.d.d.d.q.[.cXVXVXVX[.:.X.X.' / -X; JX",
"JX- qXw.t.t.d.d.5.3XCXZX4X;.@.X.' ' ) %X& JX",
"JX- qXt.t.t.t.4.x.lXZXZXMX[.F.( ! Q Q :X& JX",
"JX- 8X&.w.w.4.x.lXMXXX|.SXSX=.l N w 9 T.# JX",
"JX- 7X&.&.+.c.lXMX X:.6 .XGXFXc 5 9 i ).# JX",
"JX& &X^ J H -.fXc.a C N p .XgX=.9 9 L <X# JX",
"JXJX3 '.~ G K 1.v C C N N 6 M.{ 9 L R.k $ JX",
"JXJXJX2 ^.~ C C C C N N w w w 9 R E.j $ JXJX",
"JXJXJXJX< !.Y C N N N w w 9 9 R Q.u $ JXJXJX",
"JXJXJXJXJX> Y.I A A y y y 9 E E.4 $ JXJXJXJX",
"JXJXJXJXJXX > U.^.$X$X_.(.(.+X3 o JXJXJXJXJX",
"JXJXJXJXJXJX  # # + + + + + # . JXJXJXJXJXJX",
"JXJXJXJXJXJXJXJXJXJXJXJXJXJXJXJXJXJXJXJXJXJX"
};
