/* XPM */
static char *RFM_icon_symbolic-link[] = {
/* columns rows colors chars-per-pixel */
"22 22 99 2 ",
"   c #858782",
".  c #878984",
"X  c #888A85",
"o  c #9FA19D",
"O  c #AAABA8",
"+  c #AEAFAD",
"@  c #AFB0AD",
"#  c #B2B3B0",
"$  c #BBBCBA",
"%  c #C0C0BF",
"&  c #C1C2C0",
"*  c #C3C4C2",
"=  c #C4C5C3",
"-  c #CBCCCA",
";  c #CCCDCB",
":  c #CDCDCC",
">  c #D5D5D4",
",  c #D5D6D5",
"<  c #E3E3E3",
"1  c #E3E4E3",
"2  c #E4E3E4",
"3  c #E4E4E4",
"4  c #E5E4E4",
"5  c #E4E5E4",
"6  c #E4E4E5",
"7  c #E4E5E5",
"8  c #E5E5E5",
"9  c #E6E5E5",
"0  c #E5E6E5",
"q  c #E6E5E6",
"w  c #E6E6E6",
"e  c #E7E6E6",
"r  c #E6E7E6",
"t  c #E7E7E6",
"y  c #E7E6E7",
"u  c #E6E7E7",
"i  c #E7E7E7",
"p  c #E8E7E7",
"a  c #E7E8E7",
"s  c #E8E8E7",
"d  c #E7E8E8",
"f  c gray91",
"g  c #E8E9E8",
"h  c #E9E9E8",
"j  c #E8E8E9",
"k  c #E8E9E9",
"l  c #E9E9E9",
"z  c #EAE9E9",
"x  c #E9EAE9",
"c  c #EAE9EA",
"v  c #E9EAEA",
"b  c #EAEAEA",
"n  c #EAEAEB",
"m  c #EBEAEB",
"M  c gray92",
"N  c #ECEBEB",
"B  c #ECECEB",
"V  c #ECEBEC",
"C  c #EBECEC",
"Z  c #ECECEC",
"A  c #EDECEC",
"S  c #ECEDEC",
"D  c #ECECED",
"F  c #EDEDED",
"G  c #EDEEED",
"H  c #EEEEED",
"J  c #EDEEEE",
"K  c #EEEEEE",
"L  c #EFEEEE",
"P  c #EEEEEF",
"I  c #EFEEEF",
"U  c #EFEFEF",
"Y  c #F0EFEF",
"T  c #EFF0EF",
"R  c #EFEFF0",
"E  c #F0EFF0",
"W  c #EFF0F0",
"Q  c #F0F0F0",
"!  c #F1F0F0",
"~  c #F1F1F0",
"^  c #F1F0F1",
"/  c #F1F1F1",
"(  c #F1F2F1",
")  c gray95",
"_  c #F3F2F2",
"`  c #F2F3F3",
"'  c #F3F3F3",
"]  c #F4F3F4",
"[  c #F4F4F4",
"{  c #F4F4F5",
"}  c #F4F5F5",
"|  c #F5F5F5",
" . c #F6F5F5",
".. c #F5F5F6",
"X. c #F6F5F6",
"o. c #F6F6F6",
"O. c #F7F7F6",
"+. c #FFFFFF",
"@. c None",
/* pixels */
"@.@.@.X X X X X X X . X X X X X . . . @.@.@.",
"@.@.# t +.+.+.+.+.+.+.+.+.+.+.+.+.+.a o @.@.",
"@.X t < < < 2 6 t 2 t 2 t 2 t t < 6 < t X @.",
"@.X +.< 6 6 t t t t t t d t 2 t t 6 6 +.X @.",
"@.X +.2 t t d d a l l d d j j j t t t +.X @.",
"@.X +.t t t d l l l l l j j l s l s t +.X @.",
"@.X +.t t d & $ @ O & M B m m l l l l +.X @.",
"@.X +.d d * , & + @ O & A A B O m l l +.X @.",
"@.X +.l , l D A - O O O & A O O A D M +.. @.",
"@.X +.l n D D A A ; O O O O O O A A M +.X @.",
"@.X +.l D D A A T Q : O O O O O A A A +.X @.",
"@.X +.l M A R Q Q Q Q O O O O O W A A +.X @.",
"@.X +.D A R A Q E ' O O O O O O Q R A +.X @.",
"@.X +.l A Y Q Q ' O O O O O O O Q Q A +.X @.",
"@.X +.D A A Y ' ' { { } } } } Q ` Q A +.X @.",
"@.. +.A A Y Y E ' ' } O.O.} ' } Q Q A +.X @.",
"@.X +.D A W Q Q ' ' } O.{ } ' Q Q Q A +.X @.",
"@.X s l A A Q Q } Q { { } ' ' Q Q Q A t X @.",
"@.@.# a +.+.+.+.+.+.+.+.+.+.+.+.+.+.t # @.@.",
"@.@.@.. X X X X X X X X X X X X X X   @.@.@.",
"@.@.@.@.@.@.@.@.@.@.@.@.@.@.@.@.@.@.@.@.@.@.",
"@.@.@.@.@.@.@.@.@.@.@.@.@.@.@.@.@.@.@.@.@.@."
};
