/* XPM */
static char *RFM_icon_unmounted[] = {
/* columns rows colors chars-per-pixel */
"20 20 181 2 ",
"   c #5D0000",
".  c #600000",
"X  c #6D0000",
"o  c #700000",
"O  c #750000",
"+  c #7C0000",
"@  c #7D0000",
"#  c #7E0000",
"$  c #7F0000",
"%  c #800000",
"&  c #820101",
"*  c #840404",
"=  c #840707",
"-  c #850909",
";  c #9F0808",
":  c #9F0B0B",
">  c #9D1D1D",
",  c #9D1E1E",
"<  c #9F1E1E",
"1  c #A00707",
"2  c #A80707",
"3  c #A90707",
"4  c #A00C0C",
"5  c #B40000",
"6  c #B50000",
"7  c #BB0000",
"8  c #BC0000",
"9  c #B50F0F",
"0  c #A41212",
"q  c #A41313",
"w  c #A01F1F",
"e  c #BB1111",
"r  c #BC1010",
"t  c #B41E1E",
"y  c #B51E1E",
"u  c #BF1919",
"i  c #BE1A1A",
"p  c #BF1B1B",
"a  c #9F2222",
"s  c #AF2727",
"d  c brown",
"f  c #A52B2B",
"g  c #AF2828",
"h  c #BC2626",
"j  c #BE2929",
"k  c #BD2A2A",
"l  c #BD2B2B",
"z  c #BF2F2F",
"x  c #B23535",
"c  c #B33636",
"v  c #BE3131",
"b  c #B53C3C",
"n  c #C20000",
"m  c #C30000",
"M  c #C60000",
"N  c #C70000",
"B  c #C10707",
"V  c #C80000",
"C  c #C90000",
"Z  c #CA0101",
"A  c #CC0000",
"S  c #CD0000",
"D  c #CE0000",
"F  c #CF0000",
"G  c #C00909",
"H  c #C10A0A",
"J  c #C60B0B",
"K  c #C70B0B",
"L  c #C00C0C",
"P  c #C20C0C",
"I  c #C30C0C",
"U  c #C50D0D",
"Y  c #C70D0D",
"T  c #C90F0F",
"R  c #D00000",
"E  c #D10000",
"W  c #D20000",
"Q  c #D30000",
"!  c #D40000",
"~  c #D60000",
"^  c #D70000",
"/  c #D70707",
"(  c #D80000",
")  c #D90000",
"_  c #DB0000",
"`  c #DC0000",
"'  c #DD0000",
"]  c #DD0101",
"[  c #DE0000",
"{  c #DF0000",
"}  c #DE0101",
"|  c #D60808",
" . c #D40D0D",
".. c #C71414",
"X. c #CB1010",
"o. c #CA1111",
"O. c #C91212",
"+. c #CC1313",
"@. c #CD1313",
"#. c #C21F1F",
"$. c #DD1212",
"%. c #DC1313",
"&. c #DF1616",
"*. c #D21919",
"=. c #D11A1A",
"-. c #DA1A1A",
";. c #DC1919",
":. c #E00000",
">. c #E10000",
",. c #E20000",
"<. c #E30000",
"1. c #E50000",
"2. c #E60000",
"3. c #E70000",
"4. c #E30505",
"5. c #E50505",
"6. c #E80000",
"7. c #E90000",
"8. c #EA0000",
"9. c #EB0000",
"0. c #EC0000",
"q. c #ED0000",
"w. c #EE0000",
"e. c #EB0404",
"r. c #EC0404",
"t. c #E50D0D",
"y. c #E60C0C",
"u. c #EA0808",
"i. c #F00000",
"p. c #F10000",
"a. c #F30000",
"s. c #F40000",
"d. c #F60000",
"f. c #F70000",
"g. c #E01515",
"h. c #C22323",
"j. c #C52121",
"k. c #C72222",
"l. c #C72323",
"z. c #C72424",
"x. c #C72525",
"c. c #C52626",
"v. c #C12B2B",
"b. c #C02C2C",
"n. c #D22020",
"m. c #D02222",
"M. c #C03232",
"N. c #C13232",
"B. c #C33434",
"V. c #C43535",
"C. c #C53535",
"Z. c #C53636",
"A. c #C63737",
"S. c #C43838",
"D. c #C43939",
"F. c #C24242",
"G. c #C34343",
"H. c #C44040",
"J. c #C44141",
"K. c #C54545",
"L. c #C64646",
"P. c #C64747",
"I. c #C64848",
"U. c #C74949",
"Y. c #C74A4A",
"T. c #C74B4B",
"R. c #C24F4F",
"E. c #C84F4F",
"W. c #C75050",
"Q. c #C75151",
"!. c #C95050",
"~. c #CC5959",
"^. c #CC5A5A",
"/. c #CC5B5B",
"(. c IndianRed",
"). c #CD5D5D",
"_. c #CE6262",
"`. c #CF6363",
"'. c #D06767",
"]. c #D16868",
"[. c None",
/* pixels */
"[.[.[.[.[.[.[.[.[.[.[.[.[.[.[.[.[.[.[.[.",
"[.[.[.[.[.[.[.@ % @ @ % @ [.[.[.[.[.[.[.",
"[.[.[.[.[.@ - d b R.R.b f = % [.[.[.[.[.",
"[.[.[.[.@ a W.!.'.'.'._.W.T.d @ [.[.[.[.",
"[.[.[.@ x L.E.).).).~.~.~.T.L.x @ [.[.[.",
"[.[.@ < F.j T.T.T.L.T.L.L.L.h F.< @ [.[.",
"[.[.= F.9 N.D.A.A.A.A.A.B.N.j 9 G.= [.[.",
"[.@ < j 6 h.c.c.j.j.z.j.j.#.p 5 j w @ [.",
"[.% s p 7 P ..O.O.X.O.T T U B 7 p s @ [.",
"[.@ z H n N Z F F R F F F N N n P N.@ [.",
"[.@ j J Z F R ~ ~ ~ ( ~ R F Z Z U b.@ [.",
"[.% h X.R R ( } } :.} } } ~ R F X.t % [.",
"[.@ 0 *.R ( } 1.1.6.6.1.:.} ~ R *.q + [.",
"[.[.= n./ } :.6.w.w.p.w.6.:.} / n.= [.[.",
"[.[.% 4 ;.} 1.w.p.f.s.p.6.:.} -.4 % [.[.",
"[.[.[.@ r &.5.6.p.s.s.w.6.4.&.e @ [.[.[.",
"[.[.[.[.@ 1 $.y.u.r.r.u.y.&.; @ [.[.[.[.",
"[.[.[.[.[.o % 3 H  . .H 2 % X [.[.[.[.[.",
"[.[.[.[.[.[.[.. O @ @ O   [.[.[.[.[.[.[.",
"[.[.[.[.[.[.[.[.[.[.[.[.[.[.[.[.[.[.[.[."
};
