/* XPM */
static char *RFM_icon_up[] = {
/* columns rows colors chars-per-pixel */
"22 22 131 2 ",
"   c #3B7503",
".  c #3C7503",
"X  c #3C7603",
"o  c #3A7304",
"O  c #3B7504",
"+  c #3A7604",
"@  c #3B7604",
"#  c #3C7604",
"$  c #3D7805",
"%  c #3E7905",
"&  c #3E7609",
"*  c #3D7808",
"=  c #447B0F",
"-  c #457C10",
";  c #4F9B08",
":  c #549D0E",
">  c #549E0F",
",  c #4B8317",
"<  c #4B8118",
"1  c #4F851F",
"2  c #569E11",
"3  c #51A007",
"4  c #53A109",
"5  c #56A609",
"6  c #57A709",
"7  c #56A10E",
"8  c #57A80A",
"9  c #5CAF0C",
"0  c #5CB00C",
"q  c #59A016",
"w  c #5CAA11",
"e  c #5EA817",
"r  c #5AA118",
"t  c #5CA21A",
"y  c #5EA31C",
"u  c #60B60E",
"i  c #61B70E",
"p  c #61B80E",
"a  c #62B80E",
"s  c #61A81C",
"d  c #65BD10",
"f  c #66BE10",
"g  c #66BF10",
"h  c #67BF10",
"j  c #66BA14",
"k  c #65B319",
"l  c #6CBD1E",
"z  c #558B22",
"x  c #558D22",
"c  c #588A28",
"v  c #5B8E29",
"b  c #649437",
"n  c #689A39",
"m  c #61A521",
"M  c #63A623",
"N  c #68AB27",
"B  c #66A828",
"V  c #6BAC2D",
"C  c #6EB32C",
"Z  c #72BB2A",
"A  c #6CAC31",
"S  c #6FAD34",
"D  c #6FAD35",
"F  c #72AF3A",
"G  c #73B434",
"H  c #77B53B",
"J  c #79BC3A",
"K  c #67C011",
"L  c #69C311",
"P  c #6AC412",
"I  c #6BC612",
"U  c #6BC712",
"Y  c #6CC713",
"T  c #6CC813",
"R  c #6DC913",
"E  c #6DCA13",
"W  c #6ECB14",
"Q  c #6FCC14",
"!  c #71D015",
"~  c #74C129",
"^  c #7CC338",
"/  c #74A149",
"(  c #76A748",
")  c #77B140",
"_  c #79B343",
"`  c #79B541",
"'  c #7DBB41",
"]  c #82AC59",
"[  c #82B255",
"{  c #83B850",
"}  c #84B851",
"|  c #85B952",
" . c #8DBE5F",
".. c #8CB665",
"X. c #8EBB64",
"o. c #96BF70",
"O. c #82C145",
"+. c #87C74A",
"@. c #94C269",
"#. c #95C36A",
"$. c #96C16D",
"%. c #9AC572",
"&. c #9CC376",
"*. c #9CC575",
"=. c #9CC872",
"-. c #A0CB79",
";. c #A2CA7D",
":. c #A8D180",
">. c #A9D380",
",. c #AAD581",
"<. c #ACD982",
"1. c #AEDB83",
"2. c #AFDC83",
"3. c #AFDD83",
"4. c #AFDA85",
"5. c #ADD18D",
"6. c #B0DE83",
"7. c #B0DF84",
"8. c #B1DF84",
"9. c #B5D598",
"0. c #B1E084",
"q. c #BBD7A0",
"w. c #BEDBA3",
"e. c #BDDCA0",
"r. c #BFDBA5",
"t. c #C0DEA2",
"y. c #C2E1A5",
"u. c #C4E3A6",
"i. c #C5E3A9",
"p. c #C6E4A9",
"a. c None",
/* pixels */
"a.a.a.a.a.a.a.a.a.a.a.a.a.a.a.a.a.a.a.a.a.a.",
"a.a.a.a.a.a.a.a.a.a.a.a.a.a.a.a.a.a.a.a.a.a.",
"a.a.a.a.a.a.a.a.a.a.a.a.a.a.a.a.a.a.a.a.a.a.",
"a.a.a.a.a.a.a.a.a.a.X # a.a.a.a.a.a.a.a.a.a.",
"a.a.a.a.a.a.a.a.a.a.z x X a.a.a.a.a.a.a.a.a.",
"a.a.a.a.a.a.a.a.a.< *.%., a.a.a.a.a.a.a.a.a.",
"a.a.a.a.a.a.a.a.- &.F D $.= a.a.a.a.a.a.a.a.",
"a.a.a.a.a.a.a.& o.| r 2 _ X.* a.a.a.a.a.a.a.",
"a.a.a.a.a.a.o ..@.M t q : { [   a.a.a.a.a.a.",
"a.a.a.a.a.O ] ;.A B M t : ;  .( O a.a.a.a.a.",
"a.a.a.a.# / 5.H D V N s 4 3 7 #.n # a.a.a.a.",
"a.a.a.a.b 9.| ` H G C w 8 8 5 e =.v a.a.a.a.",
"a.a.a.c q.r.w.e.J J k 0 0 9 ,.;.:.;.1 a.a.a.",
"a.a.O o o o $ t.O.Z a a a i ;.= o o O O a.a.",
"a.a.a.a.a.a.O y.+.j a L K K 0.% a.a.a.a.a.a.",
"a.a.a.a.a.a.o i.^ f L U U E 0.X a.a.a.a.a.a.",
"a.a.a.a.a.a.o i.Z K Y Q ! W 8.o a.a.a.a.a.a.",
"a.a.a.a.a.a.O i.Y a Y Y W Y 8.o a.a.a.a.a.a.",
"a.a.a.a.a.a.o i.4.4.8.8.8.8.8.o a.a.a.a.a.a.",
"a.a.a.a.a.a.o o o o o o o o o o a.a.a.a.a.a.",
"a.a.a.a.a.a.a.a.a.a.a.a.a.a.a.a.a.a.a.a.a.a.",
"a.a.a.a.a.a.a.a.a.a.a.a.a.a.a.a.a.a.a.a.a.a."
};
